<svg xmlns="http://www.w3.org/2000/svg" xmlns:xlink="http://www.w3.org/1999/xlink" width="461.214" height="216.798" viewBox="0 0 461.214 216.798">
  <defs>
    <linearGradient id="linear-gradient" x1="0.5" y1="1" x2="0.468" y2="-0.206" gradientUnits="objectBoundingBox">
      <stop offset="0" stop-color="#00796a"/>
      <stop offset="1" stop-color="#0a6492"/>
    </linearGradient>
  </defs>
  <g id="Group_4131" data-name="Group 4131" transform="translate(1143.038 -1046.705)">
    <g id="Group_62378" data-name="Group 62378" transform="translate(-1143.038 1046.705)">
      <g id="Group_62377" data-name="Group 62377" transform="translate(0 0)">
        <path id="Union_1" data-name="Union 1" d="M118.325,216.8A88.8,88.8,0,0,1,29.8,127.725V105.7H8.057A8.051,8.051,0,0,1,3.094,91.313L51.3,53.512l66.09-51.8a8.045,8.045,0,0,1,9.926,0l114.293,89.6A8.051,8.051,0,0,1,236.65,105.7H214.893v22.028A88.8,88.8,0,0,1,126.374,216.8Z" transform="translate(-0.008 0)" fill="url(#linear-gradient)"/>
        <path id="Path_60259" data-name="Path 60259" d="M0,0H37.018V44.26L0,12.876Z" transform="translate(175.452 9.09)" fill="#076987"/>
        <circle id="Ellipse_54" data-name="Ellipse 54" cx="71.62" cy="71.62" r="71.62" transform="translate(50.72 52.634)" fill="#fff"/>
        <g id="OniT" transform="translate(77.419 79.298)">
          <rect id="qr_background" data-name="qr background" width="89.842" height="89.842" fill="#fff"/>
          <path id="qr_dark_pixels" data-name="qr dark pixels" d="M30,0h3.333V6.668H36.67V3.333h6.668V6.668H40.007v6.668H36.672V10H33.339v3.34H26.671V10H30V6.668H26.671V3.333H30ZM43.34,0h3.333V3.333H43.34Zm10,0h3.333V3.333H53.341ZM50.008,3.333h3.333V6.668H50.008ZM46.673,6.668h3.333V10h3.333V6.668h3.333v10H53.341V13.336h-10V10h3.333ZM33.339,13.336h3.333v10H33.339Zm6.668,0H43.34v3.333H40.007ZM26.671,16.669H30v6.668H26.671Zm16.669,0h3.333V20H43.34Zm6.668,0h3.333V20H50.008ZM40.013,20h3.333V26.67h3.333V20h3.333v6.668h10V30H56.676v3.333h3.333V36.67H56.676V40H53.341v3.333H50.008V46.67H46.673V43.34H43.34V40.007h3.333V33.339h6.668V30H40.007Zm13.336,0h3.333v3.333h-3.34ZM0,26.671H16.669v6.668h10v3.333h-10v3.333H13.336v3.333H10V40.007H6.668V43.34H3.333V40.007H0V36.672H3.333V30H0ZM6.668,30h6.668v6.668H10V33.339H6.668ZM20,26.671H36.672V30H33.339v6.668h3.333V33.339H43.34v3.333H40.007V43.34H36.672V40.007H33.339V43.34H26.671V40.007H30V33.339H26.671V30H20Zm43.34,0h3.333v6.668h6.668v3.333H70.012V43.34H66.677V40.007H63.344Zm6.668,0h3.333V30H70.012Zm6.668,0h3.333v6.668h3.333v10H80.012v3.333h3.333v6.668H80.012V50.008H76.679V43.34H73.345V40.007h6.668V36.672H76.679ZM20,40.007h3.333V43.34H20Zm36.672,0h6.668V43.34H56.676ZM0,43.34H3.333V56.676H0Zm6.668,0H10v6.668H6.668Zm6.668,0H20v3.333h3.333V43.34H26.67v3.333h6.668v6.668H36.67v3.333H33.339v3.335H30v3.333H26.671v-10H30V50.008H26.671v3.333H23.337V50.008h-10Zm20,0h3.333v3.333H33.339Zm6.668,0H43.34v3.333H40.007Zm13.336,0h3.333v6.668H50.008V46.673h3.333Zm10,0h3.333v3.333H70V43.34h3.333v6.668H70.012v3.333H56.676V50.008h6.668Zm-20,3.333h3.333v3.333H43.34Zm-3.333,3.333H43.34v3.333h3.333v6.67h3.333v6.668H46.673V63.344H40.007v6.668H33.339V66.677h3.333V60.009H43.34V56.676H40.007Zm6.668,0h3.333v3.333H46.673ZM10,53.341h3.34v3.333H10Zm6.668,0h6.668v3.333H16.669Zm33.339,0h3.333v3.333H50.008Zm23.337,0h3.333v3.333H73.345Zm-3.333,3.333h3.333v3.335H70.012Zm3.333,3.333h10V63.34h-10ZM70.006,63.34h3.333v3.333H70.012ZM26.671,66.677H30V80.012h3.333V73.345H36.67v10h-10Zm23.337,0h3.333V70.01h10v3.333H60.009v3.333H70V73.345H66.677V70.012h6.668V66.677h10V83.345H60.009V80.012H53.341v3.333H46.673V80.012h3.333V76.679h3.333V73.345H50.008Zm26.671,6.668h3.333v6.668H73.345V76.679h3.333ZM40.007,70.012h6.668v3.333h3.333v3.333H46.673v3.333H43.34v3.333H40.007V76.679H43.34V73.345H40.007Z" transform="translate(3.168 3.168)" fill-rule="evenodd"/>
          <path id="qr_squares" data-name="qr squares" d="M0,0H23.337V23.337H0ZM3.333,3.333H20V20H3.333ZM6.668,6.668h10v10h-10v-10ZM60.009,0H83.347V23.337H60.009Zm3.333,3.333H80.011V20H63.344V3.333Zm3.333,3.333h10v10h-10v-10ZM0,60.009H23.337V83.347H0Zm3.333,3.333H20V80.011H3.333V63.344Zm3.333,3.333h10v10h-10v-10ZM53.339,53.339H70.008V70.008H53.341V53.341Zm3.333,3.333h10v10h-10v-10Zm3.337,3.337h3.333v3.333H60.009Z" transform="translate(3.168 3.168)" fill-rule="evenodd"/>
        </g>
      </g>
    </g>
    <g id="Group_62379" data-name="Group 62379" transform="translate(-915.49 1134.746)">
      <path id="Path_60260" data-name="Path 60260" d="M-87.549-118.174q15.536,0,24.81,10.066t9.268,27.664v51.682H-80.42V-76.791q0-8.878-4.6-13.792A16.12,16.12,0,0,0-97.376-95.49a16.12,16.12,0,0,0-12.358,4.907q-4.6,4.907-4.6,13.792v48.034h-27.109v-88.461h27.109v11.731a28.6,28.6,0,0,1,11.1-9.268A35.279,35.279,0,0,1-87.549-118.174Zm80.058.95v88.461H-34.6v-88.461Zm99.716-30.072v21.719H62.738v96.812H35.629v-96.812H6.142v-21.719Z" transform="translate(141.441 149.47)" fill="#161716"/>
      <circle id="Ellipse_55" data-name="Ellipse 55" cx="13.681" cy="13.681" r="13.681" transform="translate(106.573 0)" fill="#01786c"/>
    </g>
  </g>
</svg>
